# xmcd
#
# Track frame offsets: 
#        150
#        20015
#        33610
#        47517
#        59582
#        67985
#        81788
#        93954
#        108033
#        127863
#        139593
#        151190
#        167073
#        186330
#        198395
#        210708
#        227375
#        241210
#        262412
#        278765
#        292295
#        306339
#
# Disc length: 4263 seconds
#
# Revision: 0
# Processed by: cddbd v1.5.1PL0 Copyright (c) Steve Scherf et al.
# Submitted via: ExactAudioCopy v0.95a2
#
DISCID=3b10a516
DTITLE=Lowell Fulson - The Complete Kent Recordings - Disk 4
DYEAR=2001
DGENRE=Blues
TTITLE0=Radio Ad, WOKJ, Jackson, Mississippi (Too Many Drivers)
TTITLE1=Too Many Drivers (Take 5)
TTITLE2=My Heart Belongs To You
TTITLE3=What's Gonna Be (Take 15)
TTITLE4=Strange Feeling (In a Session)
TTITLE5=Strange Feeling (Take 8)
TTITLE6=Get Your Game Up Tight (Take 4)
TTITLE7=Blues Around Midnight (LP Version)
TTITLE8=Year Of 29
TTITLE9=Talkin' Woman (Take 5)
TTITLE10=Talkin Woman (Take 17)
TTITLE11=Ask At Any Door In Town (Take 1)
TTITLE12=Tramp (Take 1)
TTITLE13=Let's Go Get Stoned (Take 4)
TTITLE14=Let's Go Get Stoned
TTITLE15=I Cried (Take 2)
TTITLE16=Feel So Bad (Take 2)
TTITLE17=Blues Pain (Take 3)
TTITLE18=What The Heck (Take 5)
TTITLE19=Funky Broadway (Take 1)
TTITLE20=The Sweetest Thing (Take 2)
TTITLE21=Everyday I Have The Blues (Take 4)
EXTD=
EXTT0=
EXTT1=
EXTT2=
EXTT3=
EXTT4=
EXTT5=
EXTT6=
EXTT7=
EXTT8=
EXTT9=
EXTT10=
EXTT11=
EXTT12=
EXTT13=
EXTT14=
EXTT15=
EXTT16=
EXTT17=
EXTT18=
EXTT19=
EXTT20=
EXTT21=
PLAYORDER=
